<svg xmlns="http://www.w3.org/2000/svg" viewBox="0 0 1554.59 321.43"><defs><style>.cls-1{fill:#c51004;}.cls-2{fill:#709a1a;}.cls-3{fill:#212121;}</style></defs><title>pomodoru2</title><g id="Camada_2" data-name="Camada 2"><g id="Camada_1-2" data-name="Camada 1"><path class="cls-1" d="M247.75,208a113.41,113.41,0,1,1-218-43.86,103,103,0,1,0,178.39-42.26A113.11,113.11,0,0,1,247.75,208Z"/><g id="x6vVlQ.tif"><path class="cls-2" d="M248,51.55C218.23,130,109.67,69.06,91.15,110.43c-3.62,3.13-12.6,4.58-18.47,3.3C61.89,85.86,30.75-14.81,95.57,1.85c31.07-.59-4.87,18.31-7.45,31.33-22.3,67.46,8.78,36.27,19,38.5,12.11,1.07,22.95-3.06,28.44-14.61C138.75,46,107,41.78,138,37c22.64-.22,7.29,32.56-5.34,37.3-7.59,6.43,26,5.56,30.09,8.74C244,96.81,240.89,31,202.43,56.32c-3.29,1.35-6.87,1.78-10.51-2.3C179.46,11,247.71,13.08,248,51.55Z"/><path class="cls-2" d="M0,118.53c8.41-26.79,6.66-10.28,14.34,2.9,24.14,15.08,51.54-10.89,43-36.17C87.09,125.45,11.42,156.16,0,118.53Z"/></g><rect class="cls-3" x="104.87" y="150.51" width="12.25" height="72.81" rx="5.46" transform="translate(-99.65 133.23) rotate(-45)"/><rect class="cls-3" x="147" y="183.42" width="12.25" height="49.81" rx="5.46" transform="translate(361.45 55.2) rotate(90)"/><path class="cls-3" d="M322.62,134q12-1.82,24.57-2.73t24.31-.91a123.41,123.41,0,0,1,23.4,2.21,57.89,57.89,0,0,1,20.54,8.06,43.42,43.42,0,0,1,14.69,16.12q5.58,10.28,5.59,26.65,0,14.82-5.07,25a45.57,45.57,0,0,1-13.39,16.38,53.43,53.43,0,0,1-18.85,9A85.13,85.13,0,0,1,377,236.47q-4.43,0-7.54-.26a22.9,22.9,0,0,1-3.9-.52v32a107.33,107.33,0,0,1-12.09,1.69q-5.34.39-9.49.39-4.43,0-9.49-.39a108.75,108.75,0,0,1-11.83-1.69Zm42.9,68.9a26.85,26.85,0,0,0,3.25.39c1.3.09,2.38.13,3.25.13q9.09,0,15-4.55t5.85-15.47q0-9.36-5.85-14.43a21.26,21.26,0,0,0-14.43-5.07h-3a33.07,33.07,0,0,0-4,.26Z"/><path class="cls-3" d="M660.88,130.91a130.83,130.83,0,0,1,21.06,1.69,55.07,55.07,0,0,1,19.24,6.89,91.94,91.94,0,0,1,15.86-6,74.86,74.86,0,0,1,20.54-2.6,117.68,117.68,0,0,1,20.93,2,47.61,47.61,0,0,1,19.5,8.19q8.7,6.24,14.3,17.94t5.59,30.94v77.74a106.5,106.5,0,0,1-12.22,1.69q-5.46.39-9.62.39-4.42,0-9.88-.39A106.2,106.2,0,0,1,754,267.67V194.61q0-13.79-4.68-19.76t-15.34-6a32.84,32.84,0,0,0-7.15.78A35.48,35.48,0,0,0,722,171a83.83,83.83,0,0,1,2.34,20.8v75.92a106.5,106.5,0,0,1-12.22,1.69q-5.46.39-9.62.39-4.43,0-9.88-.39a106.2,106.2,0,0,1-12.22-1.69V194.61q0-13.79-4.42-19.76t-15.08-6a38.28,38.28,0,0,0-6.11.52,12.94,12.94,0,0,0-4,1v97.24a106.5,106.5,0,0,1-12.22,1.69q-5.46.39-9.62.39-4.42,0-9.88-.39a106.2,106.2,0,0,1-12.22-1.69V140q9.09-3.12,21.84-6.11T660.88,130.91Z"/><path class="cls-3" d="M1021.75,130.39q21.06,0,36,4.94t24.57,13.91a53,53,0,0,1,14,21.71,85.94,85.94,0,0,1,4.42,28.34,91,91,0,0,1-4.55,29.64,56,56,0,0,1-14.3,22.62q-9.75,9.36-25.22,14.43t-37.31,5.07q-12.74,0-22.75-.91t-20.93-2.47V134q10.92-1.31,23.14-2.47T1021.75,130.39Zm-2.08,103.48a19.38,19.38,0,0,1,2.73.26,36.85,36.85,0,0,0,5.07.26q14.57,0,21.71-8.19t7.15-26.91q0-16.64-7-24.31t-20-7.67c-2.08,0-4,.09-5.72.26s-3,.35-3.9.52Z"/><path class="cls-3" d="M1273.43,134q12.22-1.56,25.35-2.6t24.83-1q31.46,0,47.19,11.83t15.73,33.15a48.57,48.57,0,0,1-1.82,14,45.11,45.11,0,0,1-4.42,10.27,30.59,30.59,0,0,1-5.46,6.89q-2.86,2.6-4.68,4.16l29.64,56.68a102.84,102.84,0,0,1-11.57,1.56q-6.37.51-12.35.52-7.27,0-14-.52a76.25,76.25,0,0,1-11.18-1.56l-28.86-61.36,3.64-2.08q9.1-5.21,12.48-11.05a24.81,24.81,0,0,0,3.38-12.61,15.47,15.47,0,0,0-4-11.05q-4-4.29-12.87-4.29a40.84,40.84,0,0,0-7.54.52V267.67a106.5,106.5,0,0,1-12.22,1.69q-5.46.39-9.62.39c-3,0-6.15-.13-9.62-.39a108,108,0,0,1-12-1.69Z"/><path class="cls-1" d="M594.12,198.38a76.83,76.83,0,0,1-153.66,0c0-42.43,41.6-42.26,76.83-65.91C552.16,109.07,594.12,156,594.12,198.38Z"/><path class="cls-1" d="M963.55,194.42a76.83,76.83,0,1,1-153.66,0c0-42.43,36-77.45,76.83-59.36S963.55,152,963.55,194.42Z"/><path class="cls-1" d="M1261.05,204.28c0,48.46-34.4,69.14-76.83,69.14s-76.83-20.68-76.83-69.14c0-42.43,34.4-71.07,76.83-71.07S1261.05,161.85,1261.05,204.28Z"/><path class="cls-1" d="M1554.59,164.53c0,77.75-34.4,103.22-76.83,103.22s-76.82-26.93-76.82-103.22c0-21.57,34.39,35.54,76.82,35.54S1554.59,136.57,1554.59,164.53Z"/></g></g></svg>